<?xml version="1.0" encoding="iso-8859-1"?>
<!DOCTYPE svg PUBLIC "-//W3C//DTD SVG 1.1//EN" "http://www.w3.org/Graphics/SVG/1.1/DTD/svg11.dtd">
<svg 
 version="1.1" xmlns="http://www.w3.org/2000/svg" xmlns:xlink="http://www.w3.org/1999/xlink" x="0px" y="0px" width="512px"
	 height="512px" viewBox="0 0 512 512" enable-background="new 0 0 512 512" xml:space="preserve"
><g id="5151e0c8492e5103c096af88a5238f72"><g></g><g fill="#ffffff"><path display="inline" fill-rule="evenodd" clip-rule="evenodd" d="M158.65,216.374c0,0,21.016-51.624,21.016-100.899
		S159.642,32.37,159.642,32.37c-4.456-17.53,6.936-31.87,25.322-31.87h124.143c18.385,0,29.784,14.34,25.321,31.87
		c0,0-21.052,33.831-21.052,83.105s21.017,100.899,21.017,100.899c6.829,16.774-21.017,46.926-87.871,46.926
		C179.667,263.3,151.821,233.148,158.65,216.374z M325.951,354.436c0-39.19,5.732-69.182,8.612-81.789
		c-18.799,16.05-50.345,25.328-88.042,25.328c-37.698,0-69.243-9.278-88.042-25.328c2.88,12.607,8.611,42.599,8.611,81.789
		c0,52.355-24.965,107.205-24.965,107.205c-8.113,17.822,24.965,49.859,104.396,49.859c79.43,0,112.508-32.037,104.396-49.859
		C350.917,461.641,325.951,406.791,325.951,354.436z M468.088,19.908c0,0,2.723,14.583-19.933,29.76
		c-24.858,16.649-60.246,15.573-95.385,59.391c-22.349,27.863-10.687,69.977-10.687,69.977s-2.281-27.442,18.079-49.161
		c20.075-21.405,59.961-40.506,81.961-55.542c16.033-10.957,18.086-21.276,18.086-21.276s5.86,5.899-16.189,24.534
		c-18.321,15.484-63.476,42.132-77.962,59.733c-17.06,20.734-13.744,46.833-13.744,46.833s65.479-2.249,102.741-53.517
		C490.309,82.137,468.088,19.908,468.088,19.908z M83.013,236.944c-12.468-24.256-3.016-35.694-3.016-35.694
		s-49.596,43.668-42.253,103.184c7.749,62.898,63.932,96.594,63.932,96.594s15.555-21.22,10.672-47.625
		c-4.142-22.417-30.726-67.607-39.252-90.031c-10.258-26.983-2.274-29.307-2.274-29.307s-3.201,10.027,5.511,27.379
		c11.962,23.811,37.598,59.851,44.784,88.298c7.286,28.861-8.006,51.764-8.006,51.764s30.604-31.186,24.566-66.389
		C128.167,279.761,96.693,263.553,83.013,236.944z"></path></g></g></svg>