<?xml version="1.0" encoding="iso-8859-1"?>
<!DOCTYPE svg PUBLIC "-//W3C//DTD SVG 1.1//EN" "http://www.w3.org/Graphics/SVG/1.1/DTD/svg11.dtd">
<svg 
 version="1.1" xmlns="http://www.w3.org/2000/svg" xmlns:xlink="http://www.w3.org/1999/xlink" x="0px" y="0px" width="512px"
	 height="512px" viewBox="0 0 512 512" enable-background="new 0 0 512 512" xml:space="preserve"
><g id="5151e0c8492e5103c096af88a5283373"><g></g><g fill="#d7d996"><path display="inline" d="M256,0.5C114.893,0.5,0.5,114.893,0.5,256c0,141.107,114.393,255.5,255.5,255.5S511.5,397.107,511.5,256
		C511.5,114.893,397.107,0.5,256,0.5z M256,477.434c-122.099,0-221.434-99.335-221.434-221.434S133.901,34.567,256,34.567
		S477.434,133.901,477.434,256S378.099,477.434,256,477.434z M426.333,256c0,94.066-76.259,170.333-170.333,170.333
		c-94.07,0-170.333-76.267-170.333-170.333c0-94.074,76.263-170.333,170.333-170.333C350.074,85.667,426.333,161.926,426.333,256z"></path></g></g></svg>